<svg width="771" height="658" viewBox="0 0 771 658" fill="none" xmlns="http://www.w3.org/2000/svg">
<rect x="219" y="251" width="356" height="136" fill="white"/>
<ellipse cx="386" cy="211.5" rx="189" ry="169.5" fill="white"/>
<ellipse cx="380.568" cy="249.844" rx="189" ry="123" transform="rotate(-12.8104 380.568 249.844)" fill="white"/>
<path d="M76.0065 387.273C70.7509 387.272 65.9937 387.272 60.853 387.272C62.0136 384.858 63.7508 384.914 65.3056 384.524C90.3225 378.258 115.627 373.828 141.343 371.493C162.058 369.611 182.763 367.948 203.567 367.649C209.356 367.565 210.306 366.356 207.847 361.718C194.262 336.099 186.765 308.695 183.517 279.997C178.945 239.592 182.133 199.971 195.59 161.437C208.768 123.702 229.519 91.0625 261.036 65.8694C285.084 46.6465 312.435 34.8021 342.745 29.6543C371.492 24.7719 400.314 25.2777 429.295 27.3877C449.472 28.8567 469.302 31.3872 488.408 38.1658C524.891 51.1097 552.021 75.3351 570.988 108.614C587.39 137.392 596.749 168.675 601.453 201.429C603.705 217.106 605.061 232.863 604.89 248.645C604.464 288.007 596.994 325.953 580.365 361.86C579.672 363.356 578.813 364.822 579.318 367.57C601.66 369.307 624.368 369.806 646.841 372.771C669.135 375.712 691.243 379.644 712.744 386.894C646.131 386.894 579.519 386.894 513.015 386.894C512.275 385.465 513.158 384.816 513.89 384.173C541.786 359.653 557.341 328.101 565.148 292.483C576.331 241.467 571.394 192.214 546.466 145.799C536.016 126.341 522.02 109.558 503.196 97.5557C473.825 78.829 444.698 81.3689 416.702 100.528C394.216 115.917 379.214 137.6 368.101 162.127C358.4 183.539 353.049 206.037 351.146 229.469C347.772 271.004 354.794 310.322 375.639 346.715C383.048 359.65 392.377 371.15 403.584 381.076C405.293 382.59 407.377 383.815 409.043 387.273C297.755 387.273 187.13 387.273 76.0065 387.273ZM257.349 278.958C257.058 275.815 256.776 272.672 256.474 269.53C254.599 250.057 255.411 230.633 258.012 211.299C261.454 185.721 269.21 161.482 280.437 138.197C296.726 104.412 318.614 75.4396 349.89 54.1357C354.448 51.0308 359.104 48.0696 363.715 45.0419C359.832 45.1992 356.441 46.3704 353.138 47.908C330.825 58.2973 312.29 73.5248 296.851 92.5019C266.423 129.902 250.483 173.277 245.501 220.81C242.855 246.058 243.928 271.277 249.317 296.221C254.316 319.365 262.03 341.357 275.886 360.833C277.139 362.595 278.113 364.866 280.843 365.215C281.368 362.58 280.04 360.764 279.172 358.831C267.846 333.628 260.683 307.284 257.349 278.958ZM279.605 203.033C278.604 210.596 277.575 218.156 276.611 225.724C276.03 230.287 277.478 231.566 281.502 229.705C286.348 227.463 291.323 225.646 296.433 224.157C299.153 223.364 300.372 221.7 300.705 218.782C301.55 211.374 302.52 203.964 303.871 196.633C305.894 185.654 305.316 185.112 294.257 188.202C286.82 190.28 279.655 192.406 279.605 203.033ZM276.326 258.75C276.433 268.813 277.286 278.773 279.926 289.314C286.854 285.804 293.059 282.753 299.163 279.512C301.101 278.483 300.789 276.307 300.561 274.536C299.433 265.794 299.004 257.016 298.825 248.211C298.734 243.749 296.999 242.702 292.673 244.273C288.28 245.869 284.317 248.324 280.249 250.589C277.262 252.251 275.806 254.447 276.326 258.75ZM289.409 165.757C289.219 167.482 287.66 169.082 289.152 171.332C296.064 169.99 303.134 168.674 310.164 167.17C310.9 167.012 311.687 165.839 311.966 164.979C314.886 155.973 318.682 147.321 322.353 138.614C323.548 135.78 322.5 134.096 319.201 134.279C314.694 134.528 310.448 135.964 306.111 137.034C302.234 137.991 299.855 140.19 298.241 143.829C295.146 150.805 292.051 157.77 289.409 165.757ZM384.402 60.8592C395.648 52.1077 408.377 45.8722 420.932 39.2931C391.987 43.7805 367.294 56.53 346.483 77.0842C351.17 77.7302 355.678 77.3423 360.081 77.8556C363.469 78.2506 365.786 77.3218 368.01 74.9804C372.83 69.9046 378.346 65.6091 384.402 60.8592ZM287.818 323.813C288.846 326.964 289.912 330.103 290.892 333.269C292.007 336.872 293.956 337.72 297.176 335.491C300.858 332.942 304.599 330.475 308.381 328.076C310.167 326.943 310.805 325.697 310.201 323.525C308.205 316.347 306.433 309.107 304.496 301.912C303.912 299.741 302.545 298.268 300.094 299.193C294.436 301.326 289.117 304.45 285.225 308.872C282.474 311.998 286.356 315.989 286.7 319.686C286.805 320.826 287.248 321.934 287.818 323.813ZM313.275 118.857C317.228 118.443 321.205 117.537 325.13 117.725C331.658 118.038 335.904 115.673 338.898 109.73C341.116 105.328 344.563 101.552 347.392 97.4488C348.373 96.0262 350.05 94.8602 349.595 92.7487C333.171 89.8744 317.637 100.791 313.275 118.857ZM220.892 238.861C217.845 236.228 215.215 232.988 210.65 231.56C208.677 242.338 209.572 252.702 209.816 263.119C210.026 272.089 216.978 273.8 222.585 278.313C222.585 265.582 222.61 253.846 222.534 242.112C222.528 241.213 221.803 240.319 220.892 238.861ZM214.39 199.675C212.946 209.364 215.501 214.211 223.286 215.909C223.72 214.185 224.358 212.469 224.562 210.702C225.592 201.786 227.039 192.928 229.618 184.345C231.001 179.744 229.982 176.444 226.713 173.186C222.965 169.452 221.769 169.582 220.1 174.602C217.473 182.5 216.136 190.699 214.39 199.675ZM238.332 129.786C236.079 134.414 233.741 139.003 231.594 143.681C229.151 149.007 230.992 153.41 236.673 156.247C238.567 155.347 238.769 153.35 239.458 151.726C243.61 141.942 247.788 132.177 253.018 122.898C255.851 117.87 255.149 115.38 249.772 111.621C245.115 116.833 242.213 123.193 238.332 129.786ZM216.401 309.247C217.107 311.974 218.036 314.664 218.48 317.432C219.944 326.549 227.514 329.124 234.068 333.163C235.331 330.628 234.132 329.015 233.541 327.365C231.134 320.642 229.185 313.793 227.697 306.814C226.313 300.317 221.023 295.437 213.909 294.275C213.978 299.129 215.208 303.762 216.401 309.247ZM271.866 94.3882C284.189 78.6013 299.003 65.394 314.797 53.1137C313.973 52.9818 313.41 53.2007 312.861 53.452C293.699 62.2264 278.667 76.1305 264.885 91.6943C261.505 95.5104 261.958 98.1711 265.582 101.149C268.439 99.749 269.678 97.089 271.866 94.3882ZM304.053 353.4C302.444 354.781 301.006 356.378 302.577 358.493C304.737 361.4 304.958 366.237 309.81 366.558C313.455 366.799 317.136 366.707 320.79 366.531C323.662 366.393 325.129 365.094 323.793 361.94C321.848 357.349 320.012 352.711 318.18 348.073C317.043 345.195 315.246 344.597 312.785 346.459C310.001 348.565 307.29 350.77 304.053 353.4ZM238.985 354.65C237.073 354.111 235.709 351.637 232.687 353.204C234.184 357.737 236.15 362.082 239.41 365.498C241.512 367.7 244.977 367.393 247.207 365.657C249.468 363.898 246.95 361.812 246.165 359.997C244.94 357.165 242.047 356.349 238.985 354.65Z" fill="black"/>
<path d="M633.949 627.349C588.228 628.721 542.981 627.721 497.066 627.99C498.418 617.66 499.547 608.309 500.881 598.987C504.06 576.791 507.325 554.607 510.574 532.421C514.542 505.319 518.529 478.218 522.509 451.117C524.175 439.773 526.034 428.453 527.403 417.074C527.849 413.369 529.174 412.49 532.714 412.504C565.695 412.638 598.677 412.59 631.659 412.595C645.798 412.597 659.946 411.996 674.051 413.636C689.71 415.456 703.72 420.641 714.872 432.373C726.055 444.139 727.316 457.928 723.715 472.829C719.701 489.444 709.579 501.529 695.56 510.756C689.908 514.476 690.129 515.061 695.449 518.948C706.467 526.998 716.462 536.69 717.869 550.708C720.151 573.433 713.531 593.517 695.023 608.477C682.238 618.812 666.971 622.651 651.251 625.243C645.677 626.162 640.031 626.65 633.949 627.349ZM585.534 582.618C597.362 582.616 609.191 582.75 621.015 582.555C627.155 582.453 633.309 581.894 639.134 579.62C649.122 575.721 654.458 565.543 652.618 553.948C651.466 546.692 643.804 540.54 634.984 540.446C617.162 540.256 599.336 540.405 581.512 540.35C577.781 540.338 575.479 541.834 574.915 545.642C573.404 555.828 571.845 566.006 570.396 576.2C569.796 580.417 571.959 582.454 576.054 582.574C578.884 582.657 581.718 582.609 585.534 582.618ZM584.492 481.834C584.126 484.127 583.651 486.408 583.416 488.715C582.843 494.363 584.299 495.973 589.87 496.05C600.681 496.2 611.503 496.694 622.301 496.371C630.06 496.138 638 496.886 645.554 494.3C654.049 491.391 659.727 481.704 658.585 472.349C657.678 464.908 652.151 459.749 643.21 459.484C626.58 458.99 609.932 459.096 593.292 459.013C589.863 458.996 587.704 460.534 587.225 464.248C586.505 469.84 585.528 475.4 584.492 481.834Z" fill="#C1281D"/>
<path d="M150.731 566.191C146.356 557.006 146.337 557.175 136.523 557.742C129.878 558.125 123.193 558.064 116.535 557.873C112.404 557.754 110.469 559.356 109.915 563.45C107.823 578.927 105.554 594.38 103.361 609.843C102.662 614.77 101.911 619.691 101.35 624.633C101.108 626.764 100.076 627.38 98.0889 627.466C81.7677 628.177 65.4375 628.209 49.1235 627.6C44.2399 627.418 39.2193 629.02 33.9556 626.981C35.3236 616.778 36.6049 606.772 38.0172 596.785C40.8543 576.722 43.7698 556.67 46.6397 536.611C49.1086 519.355 51.5456 502.094 54.0214 484.839C56.8764 464.94 59.5555 445.013 62.6963 425.159C64.9929 410.642 61.6645 412.687 76.2756 412.663C118.939 412.593 161.604 412.439 204.265 412.802C219.153 412.929 233.702 415.616 246.943 423.292C264.58 433.515 272.788 450.353 270.748 470.69C269.409 484.027 267.3 497.035 261.727 509.317C253.405 527.657 239.509 540.205 221.244 548.153C213.676 551.447 213.14 552.587 216.942 560.055C227.058 579.929 237.242 599.768 247.359 619.641C248.539 621.959 249.473 624.401 251.04 627.965C245.423 627.965 240.826 627.969 236.23 627.964C219.398 627.944 202.563 627.735 185.736 628.003C180.101 628.093 177.279 626.14 175.037 620.841C167.319 602.597 158.968 584.622 150.731 566.191ZM184.661 508.247C197.955 504.408 204.124 495.017 203.653 479.331C203.394 470.676 198.349 464.364 189.938 462.736C185.885 461.951 181.789 461.293 177.583 461.323C162.436 461.432 147.284 461.557 132.144 461.227C126.835 461.111 125.031 463.621 124.413 468.141C122.819 479.811 121.225 491.48 119.578 503.142C118.904 507.908 120.191 509.647 125.068 509.667C139.882 509.729 154.696 509.646 169.51 509.69C174.342 509.704 179.155 509.709 184.661 508.247Z" fill="#C1281D"/>
<path d="M374.428 625.706C353.44 631.193 332.591 632.268 311.717 628.18C293.153 624.544 278.214 615.579 270.351 597.233C262.323 578.502 268.394 549.717 283.934 534.179C293.839 524.275 305.77 517.309 318.009 510.802C323.44 507.915 323.934 507.07 320.843 502.063C304.747 475.983 314.285 440.06 342.311 424.307C368.04 409.845 395.273 407.906 422.508 419.551C449.578 431.125 457.273 460.842 440.29 484.859C431.712 496.99 419.717 505.085 407.199 512.527C405.482 513.548 403.682 514.432 401.979 515.474C398.724 517.465 398.38 520.112 400.614 523.047C406.468 530.736 412.405 538.361 418.28 546.033C420.578 549.033 422.693 549.006 425.089 546.052C431.136 538.597 435.415 530.156 439.037 521.353C439.848 519.382 440.558 517.772 443.115 517.79C456.443 517.88 469.771 517.884 483.099 517.951C483.553 517.953 484.005 518.31 485.006 518.734C483.944 525.75 481.351 532.356 478.323 538.74C471.707 552.688 463.209 565.417 452.157 576.258C448.604 579.742 448.904 582.596 451.697 586.195C461.089 598.301 470.353 610.506 479.645 622.689C480.61 623.954 482.123 624.976 481.824 627.284C479.092 627.481 476.339 627.839 473.584 627.85C456.255 627.918 438.924 627.877 421.595 627.954C418.393 627.968 416.458 626.322 414.561 623.995C405.061 612.345 405.027 612.397 391.511 618.978C386.118 621.604 380.656 624.074 374.428 625.706ZM346.559 539.073C344.682 538.35 342.947 538.746 341.338 539.813C332.7 545.539 327.307 553.551 325.507 563.688C323.87 572.901 328.641 581.561 337.358 585.049C350.62 590.357 363.517 587.583 376.04 582.155C380.015 580.432 378.442 577.757 376.479 575.322C371.254 568.839 366.145 562.259 360.793 555.884C356.203 550.417 352.648 544.101 346.559 539.073ZM393.807 454.622C387.369 449.71 380.747 450.623 374.157 454.164C367.645 457.663 365.491 463.406 366.03 470.513C366.527 477.059 369.232 482.684 372.995 487.878C374.905 490.513 377.19 491.34 380.287 489.404C385.543 486.118 390.573 482.58 394.504 477.74C400.579 470.26 400.468 462.137 393.807 454.622Z" fill="#C1281D"/>
<path d="M552.819 191.433C558.994 214.041 560.948 236.79 559.143 259.567C555.882 300.699 543.156 338.069 511.762 366.945C497.455 380.104 480.817 388.394 461.109 388.836C444.966 389.197 430.419 383.965 417.358 374.416C390.561 354.825 375.433 328.014 367.132 296.333C355.976 253.761 358.119 212.114 375.52 171.885C387.72 143.679 406.729 120.549 435.65 107.81C465.04 94.8633 489.596 100.317 513.496 121.63C534.345 140.222 545.524 164.57 552.819 191.433ZM497.515 349.017C506.727 340.123 514.207 329.872 519.524 318.303C538.161 277.753 541.095 235.951 527.534 193.406C519.608 168.536 506.364 147.175 483.299 133.125C455.042 115.913 426.681 122.426 406.67 144.536C400.651 151.186 400.134 157.222 404.548 165.118C412.017 178.479 418.408 192.458 422.684 207.229C426.395 220.044 419.806 231.166 406.946 234.297C396.771 236.775 386.559 239.11 376.335 241.379C372.786 242.166 370.604 243.979 370.456 247.715C370.028 258.446 371.851 268.907 374.563 279.222C375.46 282.633 377.635 283.838 381.419 282.804C389.756 280.525 398.303 278.998 406.605 276.61C421.592 272.299 431.527 284.781 430.873 297.644C430.157 311.745 428.686 325.823 427.047 339.853C426.504 344.498 427.084 349.518 424.365 353.979C417.447 352.858 412.572 347.176 404.929 345.071C405.886 346.997 406.095 347.846 406.615 348.402C417.03 359.536 429.776 366.034 444.98 367.679C465.214 369.868 482.276 363.049 497.515 349.017Z" fill="#C1281D"/>
<path d="M458.036 354.858C459.906 337.93 461.737 321.421 463.7 304.929C464.15 301.15 464.703 297.315 465.829 293.7C468.289 285.804 475.29 282.416 482.802 285.809C493.264 290.533 503.479 295.803 513.797 300.845C515.639 301.745 516.768 302.996 515.864 305.21C505.717 330.047 490.671 349.843 462.945 356.547C461.164 356.977 458.982 358.377 458.036 354.858Z" fill="#C1281D"/>
<path d="M489.5 243.437C482.474 234.879 481.726 226.349 487.369 216.971C494.32 205.42 501.878 194.294 509.546 183.227C510.114 182.408 510.616 181.544 511.824 179.633C525.937 207.671 529.688 235.742 526.287 266.43C512.774 259.494 500.369 253.095 489.5 243.437Z" fill="#C1281D"/>
<path d="M440.27 167.623C436.321 158.05 432.533 148.826 428.682 139.451C433.338 135.756 438.68 134.817 443.88 134.802C460.245 134.758 474.948 139.713 487.392 150.69C489.84 152.849 490.74 154.653 488.501 157.819C480.715 168.827 473.359 180.139 465.626 191.185C460.406 198.641 454.081 198.233 449.939 189.968C446.365 182.839 443.57 175.319 440.27 167.623Z" fill="#C1281D"/>
<path d="M464.303 249.074C464.019 256.03 461.841 261.494 455.746 264.753C449.85 267.906 444.332 266.648 440.42 261.266C435.516 254.519 435.34 242.79 440.047 236.388C446.088 228.17 455.561 228.597 460.702 237.346C462.748 240.829 463.805 244.648 464.303 249.074Z" fill="#C1281D"/>
<path d="M460.205 282.746C458.186 289.468 455.712 291.833 451.821 291.127C447.43 290.329 444.224 285.354 444.694 280.068C445.108 275.405 448.147 272.604 452.902 272.502C457.373 272.407 459.892 275.776 460.205 282.746Z" fill="#C1281D"/>
<path d="M482.071 251.855C480.491 255.231 478.502 257.745 474.797 257.196C471.054 256.642 469.464 253.701 468.491 250.352C466.564 243.72 469.363 237.894 474.614 237.681C478.732 237.514 481.289 240.207 482.428 245.644C482.849 247.654 482.798 249.562 482.071 251.855Z" fill="#C1281D"/>
<path d="M433.191 257.181C431.611 260.557 429.622 263.071 425.916 262.523C422.173 261.968 420.583 259.027 419.61 255.678C417.683 249.046 420.483 243.22 425.733 243.007C429.852 242.84 432.408 245.533 433.548 250.971C433.969 252.98 433.917 254.888 433.191 257.181Z" fill="#C1281D"/>
<path d="M444.348 218.073C443.472 215.948 443.504 214.105 443.799 212.322C444.589 207.559 448.983 204.965 453.324 206.545C458.118 208.29 459.635 211.964 459.455 216.712C459.311 220.486 457.434 223.132 453.858 223.966C449.23 225.046 446.381 222.421 444.348 218.073Z" fill="#C1281D"/>
</svg>
